<?xml version="1.0" encoding="utf-8"?>
<!-- Generator: Adobe Illustrator 22.1.0, SVG Export Plug-In . SVG Version: 6.00 Build 0)  -->
<svg version="1.1" id="Layer_1" xmlns="http://www.w3.org/2000/svg" xmlns:xlink="http://www.w3.org/1999/xlink" x="0px" y="0px"
	 viewBox="0 0 14 8" style="enable-background:new 0 0 14 8;" xml:space="preserve">
<style type="text/css">
	.st0{display:none;fill:#999999;}
	.st1{fill:#666666;}
</style>
<path id="Icon_ionic-ios-arrow-down" class="st0" d="M7,5.6l5.3-5.3c0.4-0.4,1.1-0.4,1.4,0l0,0c0.4,0.4,0.4,1.1,0,1.4l-6,6
	c-0.4,0.4-0.9,0.4-1.4,0l-6-6c-0.4-0.4-0.4-1.1,0-1.4s1.1-0.4,1.4,0L7,5.6z"/>
<path id="Icon_ionic-ios-arrow-down_1_" class="st1" d="M7,5.6l5.3-5.3c0.4-0.4,1-0.4,1.4,0l0,0c0.4,0.4,0.4,1,0,1.4l-6,6
	c-0.4,0.4-1,0.4-1.4,0l-6-6c-0.4-0.4-0.4-1,0-1.4s1-0.4,1.4,0L7,5.6z"/>
</svg>
